<?xml version="1.0" encoding="UTF-8" standalone="no"?>
<!DOCTYPE svg PUBLIC "-//W3C//DTD SVG 1.1//EN" "http://www.w3.org/Graphics/SVG/1.1/DTD/svg11.dtd">
<svg width="100%" height="100%" viewBox="0 0 527 219" version="1.1" xmlns="http://www.w3.org/2000/svg" xmlns:xlink="http://www.w3.org/1999/xlink" xml:space="preserve" xmlns:serif="http://www.serif.com/" style="fill-rule:evenodd;clip-rule:evenodd;stroke-linejoin:round;stroke-miterlimit:2;">
    <g id="SYMBOL" transform="matrix(1,0,0,1,-38,-0.125)">
        <path d="M175.3,80.56C174.41,60.57 158.17,44.33 138.1,43.35C128.27,42.87 119.19,46 112.07,51.52C110.55,52.7 108.39,52.7 106.87,51.52C99.75,46 90.67,42.87 80.84,43.35C60.77,44.33 44.53,60.57 43.63,80.56C43.19,90.4 46.42,99.47 52.06,106.56C53.28,108.09 53.28,110.28 52.06,111.8C46.42,118.89 43.19,127.96 43.63,137.8C44.52,157.79 60.76,174.03 80.83,175.01C90.66,175.49 99.74,172.36 106.86,166.84C108.38,165.66 110.54,165.66 112.06,166.84C119.18,172.36 128.26,175.49 138.09,175.01C158.16,174.03 174.4,157.79 175.29,137.8C175.73,127.96 172.5,118.89 166.86,111.8C165.64,110.27 165.64,108.08 166.86,106.56C172.5,99.48 175.73,90.4 175.29,80.56L175.3,80.56ZM157.46,111C165.7,118.69 169.93,130.58 166.69,143.25C163.82,154.45 154.95,163.27 143.7,166.13C130.97,169.36 119.02,165.14 111.3,156.93C110.31,155.87 108.63,155.87 107.63,156.93C99.9,165.14 87.96,169.36 75.23,166.13C63.98,163.28 55.11,154.45 52.24,143.25C48.99,130.59 53.23,118.69 61.47,111C62.53,110.01 62.53,108.34 61.47,107.35C53.23,99.66 49,87.77 52.24,75.1C55.11,63.9 63.98,55.08 75.23,52.22C87.96,48.99 99.91,53.21 107.63,61.42C108.62,62.48 110.3,62.48 111.3,61.42C119.03,53.21 130.97,48.99 143.7,52.22C154.95,55.07 163.83,63.9 166.69,75.1C169.94,87.76 165.7,99.66 157.46,107.35C156.4,108.34 156.4,110.01 157.46,111Z" style="fill-rule:nonzero;"/>
        <path d="M137.93,63.1C131.19,63.1 125.27,66.49 121.68,72.4C118.85,77.06 116.99,82.23 116.4,92.75C116.27,95.04 114.39,96.83 112.1,96.87C111.24,96.88 110.36,96.89 109.45,96.89C108.54,96.89 107.65,96.89 106.8,96.87C104.5,96.84 102.62,95.04 102.5,92.75C101.91,82.23 100.05,77.06 97.22,72.4C93.63,66.49 87.71,63.1 80.97,63.1C73.08,63.1 64.24,70.22 64.24,79.74C64.24,87.61 68.18,94.48 75.06,98.59C81.61,102.51 89.65,104.93 109.46,104.93C129.27,104.93 137.31,102.5 143.86,98.59C150.74,94.48 154.68,87.61 154.68,79.74C154.68,70.21 145.85,63.1 137.95,63.1L137.93,63.1ZM79.22,91.68C73.23,88.09 72.33,82.66 72.33,79.74C72.33,75.12 77.07,71.16 80.96,71.16C84.85,71.16 88.13,73.03 90.27,76.57C92.48,80.22 93.95,84.47 94.42,93.6C94.49,94.98 93.27,96.08 91.9,95.87C85.19,94.88 81.91,93.29 79.22,91.69L79.22,91.68ZM139.67,91.68C136.98,93.29 133.7,94.88 126.99,95.86C125.61,96.06 124.4,94.96 124.47,93.59C124.95,84.47 126.4,80.22 128.62,76.56C130.77,73.02 133.99,71.15 137.93,71.15C141.87,71.15 146.56,75.11 146.56,79.73C146.56,82.65 145.67,88.09 139.67,91.67L139.67,91.68Z" style="fill-rule:nonzero;"/>
        <path d="M80.98,155.25C87.72,155.25 93.64,151.86 97.23,145.95C100.06,141.29 101.92,136.12 102.51,125.6C102.64,123.31 104.52,121.52 106.81,121.48C107.67,121.47 108.55,121.46 109.46,121.46C110.37,121.46 111.26,121.46 112.11,121.48C114.41,121.51 116.29,123.31 116.41,125.6C117,136.12 118.86,141.29 121.69,145.95C125.28,151.86 131.2,155.25 137.94,155.25C145.84,155.25 154.67,148.13 154.67,138.61C154.67,130.74 150.73,123.87 143.85,119.76C137.3,115.84 129.26,113.42 109.45,113.42C89.64,113.42 81.6,115.85 75.05,119.76C68.17,123.87 64.23,130.74 64.23,138.61C64.23,148.14 73.06,155.25 80.96,155.25L80.98,155.25ZM139.71,126.66C145.7,130.25 146.6,135.68 146.6,138.6C146.6,143.22 141.86,147.18 137.97,147.18C134.08,147.18 130.8,145.31 128.66,141.77C126.45,138.12 124.98,133.87 124.51,124.74C124.44,123.36 125.66,122.26 127.03,122.47C133.74,123.46 137.02,125.05 139.71,126.65L139.71,126.66ZM79.25,126.66C81.94,125.05 85.22,123.46 91.93,122.48C93.31,122.28 94.52,123.38 94.45,124.75C93.97,133.87 92.52,138.12 90.3,141.78C88.15,145.32 84.93,147.19 80.99,147.19C77.05,147.19 72.36,143.23 72.36,138.61C72.36,135.69 73.25,130.25 79.25,126.67L79.25,126.66Z" style="fill-rule:nonzero;"/>
    </g>
    <g transform="matrix(0.998976,0,0,0.998976,-57.7005,32.8003)">
        <text x="195.444px" y="112.005px" style="font-family:'Georgia', serif;font-size:96px;">HealXYZ</text>
    </g>
</svg>
